<svg id="Layer_1" data-name="Layer 1" xmlns="http://www.w3.org/2000/svg" viewBox="0 0 64 64"><defs><style>.cls-1{fill:#010101;}</style></defs><path class="cls-1" d="M32.94,22.5a1.41,1.41,0,0,0,1.31-.77c.62-1.21,3.72-7.41,3.81-9.92.11-3.1-1.92-5.7-4.52-5.79s-4.82,2.35-4.93,5.45c-.09,2.51,2.56,8.91,3.09,10.17A1.41,1.41,0,0,0,32.94,22.5Z"/><path class="cls-1" d="M32.05,47.23a1.19,1.19,0,0,0-1.09.65c-.52,1-3.13,6.21-3.2,8.32-.1,2.6,1.61,4.78,3.79,4.86s4.05-2,4.14-4.57C35.77,54.38,33.54,49,33.1,48A1.2,1.2,0,0,0,32.05,47.23Z"/><path class="cls-1" d="M41.47,39.82a1.29,1.29,0,0,0-1.41.22,1.27,1.27,0,0,0-.29,1.39c.47,1.26,2.89,7.65,4.62,9.48,2.13,2.25,5.28,2.74,7,1.09s1.41-4.81-.73-7.06C49,43.12,42.7,40.36,41.47,39.82Z"/><path class="cls-1" d="M19.39,13C17.6,11.07,15,10.66,13.5,12s-1.18,4,.61,5.93c1.45,1.53,6.7,3.84,7.73,4.29a1,1,0,0,0,1.43-1.35C22.88,19.85,20.84,14.49,19.39,13Z"/><path class="cls-1" d="M35.11,29.69a5.22,5.22,0,0,0-1.36-2.81,4.7,4.7,0,0,0-6.61-.46,4.6,4.6,0,0,0-.47,5.88,4.5,4.5,0,0,0-.5,6.05A4.25,4.25,0,0,0,29,39.85a4.83,4.83,0,0,0,7.61-1,4.85,4.85,0,0,0-1.53-9.14Z"/><path class="cls-1" d="M20.58,33.41a1.43,1.43,0,0,0-.71-1.34c-1.19-.67-7.25-4-9.75-4.23-3.09-.24-5.78,1.67-6,4.27S6.28,37,9.37,37.27c2.51.2,9-2.18,10.3-2.65A1.41,1.41,0,0,0,20.58,33.41Z"/><path class="cls-1" d="M54.65,32.11c-2.1-.17-7.56,1.83-8.63,2.23a1.17,1.17,0,0,0-.17,2.13c1,.57,6.08,3.39,8.18,3.55,2.59.21,4.85-1.4,5-3.58S57.25,32.31,54.65,32.11Z"/><path class="cls-1" d="M41.35,27.34c1.24-.35,7.54-2.18,9.39-3.71,2.29-1.88,2.94-4.88,1.45-6.69s-4.56-1.76-6.85.13c-1.86,1.52-4.86,7.35-5.45,8.5A1.28,1.28,0,0,0,40,27,1.26,1.26,0,0,0,41.35,27.34Z"/><path class="cls-1" d="M20.64,41.65c-1,.29-6.32,1.83-7.88,3.11-1.92,1.58-2.47,4.1-1.22,5.62s3.83,1.47,5.75-.11c1.56-1.28,4.08-6.17,4.57-7.13a1,1,0,0,0-1.22-1.49Z"/></svg>