{
  "accessors": [
    {
      "bufferView": 2,
      "componentType": 5126,
      "count": 1670,
      "max": [
        101.24018859863281,
        58.23902893066406,
        252.64002990722656
      ],
      "min": [
        -46.72085189819336,
        -17.638233184814453,
        -254.97586059570313
      ],
      "type": "VEC3"
    },
    {
      "bufferView": 2,
      "byteOffset": 20040,
      "componentType": 5126,
      "count": 1670,
      "max": [
        1.0,
        1.0,
        1.0
      ],
      "min": [
        -1.0,
        -1.0,
        -1.0
      ],
      "type": "VEC3"
    },
    {
      "bufferView": 3,
      "componentType": 5126,
      "count": 1670,
      "max": [
        1.0,
        0.9999993443489075,
        1.0,
        1.0
      ],
      "min": [
        -1.0,
        -0.9999985098838806,
        -1.0,
        -1.0
      ],
      "type": "VEC4"
    },
    {
      "bufferView": 1,
      "componentType": 5126,
      "count": 1670,
      "max": [
        0.9932149648666382,
        0.994458794593811
      ],
      "min": [
        0.009095966815948486,
        0.007546905428171158
      ],
      "type": "VEC2"
    },
    {
      "bufferView": 0,
      "componentType": 5125,
      "count": 5514,
      "type": "SCALAR"
    }
  ],
  "asset": {
    "extras": {
      "author": "gribbox (https://sketchfab.com/gribbox)",
      "license": "CC-BY-4.0 (http://creativecommons.org/licenses/by/4.0/)",
      "source": "https://sketchfab.com/3d-models/kayak-15d71bbd00454e63ad7d23914dc70b66",
      "title": "Kayak"
    },
    "generator": "Sketchfab-12.66.0",
    "version": "2.0"
  },
  "bufferViews": [
    {
      "buffer": 0,
      "byteLength": 22056,
      "name": "floatBufferViews",
      "target": 34963
    },
    {
      "buffer": 0,
      "byteLength": 13360,
      "byteOffset": 22056,
      "byteStride": 8,
      "name": "floatBufferViews",
      "target": 34962
    },
    {
      "buffer": 0,
      "byteLength": 40080,
      "byteOffset": 35416,
      "byteStride": 12,
      "name": "floatBufferViews",
      "target": 34962
    },
    {
      "buffer": 0,
      "byteLength": 26720,
      "byteOffset": 75496,
      "byteStride": 16,
      "name": "floatBufferViews",
      "target": 34962
    }
  ],
  "buffers": [
    {
      "byteLength": 102216,
      "uri": "scene.bin"
    }
  ],
  "images": [
    {
      "uri": "textures/kayak_red_baseColor.png"
    },
    {
      "uri": "textures/kayak_red_metallicRoughness.png"
    },
    {
      "uri": "textures/kayak_red_normal.png"
    }
  ],
  "materials": [
    {
      "doubleSided": true,
      "name": "kayak_red",
      "normalTexture": {
        "index": 2
      },
      "occlusionTexture": {
        "index": 1
      },
      "pbrMetallicRoughness": {
        "baseColorTexture": {
          "index": 0
        },
        "metallicFactor": 0.0,
        "metallicRoughnessTexture": {
          "index": 1
        }
      }
    }
  ],
  "meshes": [
    {
      "name": "four_low3_kayak_red_0",
      "primitives": [
        {
          "attributes": {
            "NORMAL": 1,
            "POSITION": 0,
            "TANGENT": 2,
            "TEXCOORD_0": 3
          },
          "indices": 4,
          "material": 0,
          "mode": 4
        }
      ]
    }
  ],
  "nodes": [
    {
      "children": [
        1
      ],
      "matrix": [
        0.8701231479644775,
        -0.023242512717843167,
        0.4922860264778137,
        0.0,
        0.4928344190120697,
        0.04103578627109547,
        -0.8691549301147461,
        0.0,
        -5.204170427930421e-18,
        0.998887300491333,
        0.04716089740395568,
        0.0,
        -40.979400634765625,
        6.001018047332774,
        -48.72980499267578,
        1.0
      ],
      "name": "Sketchfab_model"
    },
    {
      "children": [
        2
      ],
      "matrix": [
        1.0,
        0.0,
        0.0,
        0.0,
        0.0,
        0.0,
        1.0,
        0.0,
        0.0,
        -1.0,
        0.0,
        0.0,
        0.0,
        0.0,
        0.0,
        1.0
      ],
      "name": "kayak.fbx"
    },
    {
      "children": [
        3
      ],
      "name": "RootNode"
    },
    {
      "children": [
        4
      ],
      "name": "four_low3"
    },
    {
      "mesh": 0,
      "name": "four_low3_kayak_red_0"
    }
  ],
  "samplers": [
    {
      "magFilter": 9729,
      "minFilter": 9987,
      "wrapS": 10497,
      "wrapT": 10497
    }
  ],
  "scene": 0,
  "scenes": [
    {
      "name": "Sketchfab_Scene",
      "nodes": [
        0
      ]
    }
  ],
  "textures": [
    {
      "sampler": 0,
      "source": 0
    },
    {
      "sampler": 0,
      "source": 1
    },
    {
      "sampler": 0,
      "source": 2
    }
  ]
}
